<svg height="512" viewBox="0 0 100 100" width="512" xmlns="http://www.w3.org/2000/svg"><g id="Layer_38" data-name="Layer 38"><path d="m83.58 47a22.18 22.18 0 0 0 -42.22-9.51 23.14 23.14 0 0 0 -26.89 28.31 10.78 10.78 0 0 0 0 21.56h44.36a13.23 13.23 0 0 0 13.17-13.22 13.07 13.07 0 0 0 -1.9-6.8 22.22 22.22 0 0 0 13.48-20.34zm-24.75 37.86h-44.31a8.28 8.28 0 0 1 0-16.56h1.62a1.25 1.25 0 0 0 1.18-1.65 20.43 20.43 0 0 1 -1.05-6.49 20.66 20.66 0 0 1 41.31 0c0 .61 0 1.25-.09 1.91a1.27 1.27 0 0 0 .37 1 1.36 1.36 0 0 0 1 .41 10.72 10.72 0 0 1 0 21.43zm9.76-19.6c-.14-.15-.27-.31-.42-.46a13.1 13.1 0 0 0 -8.1-3.8c0-.28 0-.56 0-.83a23.18 23.18 0 0 0 -16.21-22.1 19.67 19.67 0 1 1 24.73 27.19z"/><path d="m61.4 21.58a1.25 1.25 0 0 0 1.25-1.25v-6.79a1.25 1.25 0 0 0 -2.5 0v6.79a1.25 1.25 0 0 0 1.25 1.25z"/><path d="m95 45.89h-6.79a1.25 1.25 0 0 0 0 2.5h6.79a1.25 1.25 0 0 0 0-2.5z"/><path d="m84.27 22.5-4.8 4.8a1.26 1.26 0 0 0 .88 2.14 1.29 1.29 0 0 0 .89-.37l4.8-4.8a1.25 1.25 0 1 0 -1.77-1.77z"/><path d="m81.24 65.21a1.27 1.27 0 0 0 -1.77 0 1.25 1.25 0 0 0 0 1.77l4.8 4.81a1.28 1.28 0 0 0 .89.36 1.25 1.25 0 0 0 .84-2.15z"/><path d="m41.56 29.07a1.25 1.25 0 0 0 .88.37 1.29 1.29 0 0 0 .89-.37 1.27 1.27 0 0 0 0-1.77l-4.81-4.8a1.25 1.25 0 0 0 -1.77 0 1.27 1.27 0 0 0 0 1.77z"/></g></svg>